<svg xmlns="http://www.w3.org/2000/svg" width="51" height="50" viewBox="0 0 51 50" fill="none">
  <path d="M46.2729 19.638C46.174 19.447 46.1177 19.2369 46.1079 19.0221L45.8727 13.8705C45.8507 13.3881 45.5957 12.9465 45.189 12.6862L40.8456 9.9067C40.6645 9.79082 40.5107 9.63702 40.3948 9.45593L37.6146 5.11187C37.3544 4.70523 36.9129 4.4503 36.4306 4.42822L31.2785 4.19236C31.0638 4.18253 30.8538 4.12624 30.6629 4.02739L26.0837 1.65584C25.655 1.43379 25.1451 1.43382 24.7164 1.65591L20.1372 4.02798C19.9463 4.12687 19.7362 4.18318 19.5214 4.19301L14.3694 4.42887C13.8872 4.45095 13.4457 4.70585 13.1854 5.11245L10.4052 9.45598C10.2893 9.63704 10.1355 9.79081 9.95446 9.90668L5.61104 12.6862C5.20431 12.9465 4.94936 13.3881 4.92733 13.8705L4.69213 19.0221C4.68232 19.2369 4.62601 19.447 4.52709 19.638L2.15498 24.2171C1.93286 24.6459 1.93286 25.1558 2.15497 25.5846L4.52714 30.164C4.62603 30.3549 4.68233 30.5649 4.69216 30.7797L4.92802 35.9315C4.9501 36.4137 5.20502 36.8552 5.61164 37.1155L9.95443 39.895C10.1355 40.0109 10.2893 40.1647 10.4052 40.3458L13.1848 44.6898C13.4451 45.0966 13.8867 45.3515 14.3691 45.3736L19.5209 45.6089C19.7357 45.6187 19.9458 45.675 20.1367 45.7739L24.7163 48.146C25.1451 48.3681 25.655 48.368 26.0837 48.1459L30.6628 45.7739C30.8537 45.675 31.0639 45.6187 31.2787 45.6089L36.4304 45.3736C36.9128 45.3515 37.3544 45.0966 37.6147 44.6898L40.3943 40.3459C40.5102 40.1648 40.6641 40.0109 40.8452 39.895L45.1888 37.116C45.5956 36.8558 45.8506 36.4141 45.8726 35.9317L46.1079 30.7803C46.1177 30.5655 46.174 30.3554 46.2729 30.1644L48.6451 25.5851C48.8672 25.1563 48.8672 24.6464 48.6451 24.2177L46.2729 19.638Z" stroke="#222222" stroke-width="2.97301"/>
</svg>