<svg xmlns="http://www.w3.org/2000/svg" width="43" height="42" viewBox="0 0 43 42" fill="none">
  <path d="M31.3051 20.2786V18.4309H35.0004L18.3713 1.80176L1.74219 18.4309H5.43755V31.3647C5.43755 32.3447 5.82688 33.2847 6.5199 33.9777C7.21291 34.6707 8.15284 35.06 9.13291 35.06H13.7521" stroke="#222222" stroke-width="2.80206" stroke-linecap="round" stroke-linejoin="round"/>
  <path d="M12.8281 35.0598V23.9737C12.8281 22.9936 13.2175 22.0537 13.9105 21.3607C14.6035 20.6677 15.5434 20.2783 16.5235 20.2783H20.2188C21.1989 20.2783 22.1388 20.6677 22.8319 21.3607C23.5249 22.0537 23.9142 22.9936 23.9142 23.9737" stroke="#222222" stroke-width="2.80206" stroke-linecap="round" stroke-linejoin="round"/>
  <path d="M23.5418 30.3739L31.3284 31.1542L26.6139 37.9838L26.6112 37.9877C26.1194 38.7079 26.1744 39.711 26.8008 40.362C27.4957 41.0842 28.6201 41.117 29.35 40.416L41.3137 29.278L41.3176 29.2743C42.5972 28.069 41.9377 25.7835 40.1046 25.6049C40.1041 25.6049 40.1035 25.6048 40.103 25.6048L32.3164 24.8245L37.0309 17.9949L37.0309 17.9949L37.0336 17.991C37.5245 17.2721 37.4705 16.2713 36.8473 15.6201C36.5177 15.2722 36.0625 15.0653 35.5768 15.056C35.0945 15.0467 34.6347 15.2332 34.2929 15.5644L22.3311 26.7008L22.3311 26.7007L22.3271 26.7044C21.0476 27.9097 21.7071 30.1952 23.5402 30.3738C23.5407 30.3738 23.5413 30.3739 23.5418 30.3739Z" fill="#D75337" stroke="#F9F9F9" stroke-width="1.84768"/>
</svg>