<svg xmlns="http://www.w3.org/2000/svg" width="37" height="37" viewBox="0 0 37 37" fill="none">
  <path d="M34.1483 33.1693L4.4052 3.41113L2.47461 5.32664L11.4941 14.3763C9.33724 16.4275 8.16079 19.61 8.34178 22.6265C8.43228 23.3806 8.52277 24.1348 8.77918 24.8889C8.99034 25.7939 9.39757 26.6988 9.85005 27.4982C11.479 30.1075 14.2994 31.9778 17.3311 32.3548C20.5588 32.7621 24.0127 32.1738 26.4863 29.9416C26.5919 29.8511 26.6673 29.7304 26.7728 29.6249L32.2328 35.0848L34.1483 33.1693ZM14.0732 21.993C13.7263 22.1438 13.3643 22.0534 13.0777 21.812C12.9921 21.7403 12.9206 21.6534 12.8666 21.5556C11.3583 19.61 10.9662 16.9252 11.7505 14.6025L13.7414 16.5934C13.7414 17.9961 13.9676 19.3988 14.4804 20.7412C14.5408 20.892 14.6011 21.0428 14.6011 21.2389C14.6011 21.5707 14.3749 21.8724 14.0732 21.993ZM22.6703 27.1966C22.248 27.5585 21.5542 27.9507 21.0113 28.1015C19.322 28.7048 17.6327 27.8602 16.6373 26.8647C18.4321 26.4424 19.503 25.1151 19.8197 23.7728C19.8951 23.4259 19.8951 23.0639 19.865 22.717L23.4245 26.2614C23.1982 26.6083 22.9569 26.9401 22.6703 27.1966ZM29.3369 24.5118L15.3552 10.5453C16.0641 9.32355 16.9691 8.22252 18.0852 7.31755C19.1561 6.45784 20.4079 5.67354 21.8408 5.32664C20.4079 8.11694 20.9057 11.7519 23.153 13.9539C24.1183 14.9042 25.2646 15.5527 26.2751 16.4577C26.6673 16.8498 27.0896 17.242 27.4365 17.6945C27.4365 17.6945 28.2811 18.9011 28.5979 19.5949L28.7939 19.987C29.3972 21.45 29.5481 23.0036 29.3369 24.5118Z" fill="#D75337"/>
  <path d="M3.30664 4.09082L33.8651 34.6493" stroke="#222222" stroke-width="3.01654"/>
</svg>