<svg xmlns="http://www.w3.org/2000/svg" width="33" height="37" viewBox="0 0 33 37" fill="none">
  <path d="M16.9051 28.7565C17.2141 28.7568 17.5202 28.6959 17.8056 28.5775C18.0911 28.4591 18.3503 28.2853 18.5684 28.0663C18.7864 27.8474 18.9591 27.5874 19.0763 27.3014C19.1935 27.0155 19.2531 26.7092 19.2515 26.4001C19.2515 25.4888 18.7377 24.7421 17.991 24.335C17.6807 24.1704 17.574 24.0537 17.574 23.5788V18.43C17.574 17.9253 17.2832 17.625 16.9051 17.625C16.5369 17.625 16.2361 17.9258 16.2361 18.43V23.578C16.2361 24.0529 16.1294 24.1695 15.8191 24.3342C15.0728 24.7412 14.5586 25.4884 14.5586 26.3993C14.557 26.7084 14.6166 27.0147 14.7338 27.3006C14.8511 27.5866 15.0237 27.8465 15.2417 28.0655C15.4598 28.2845 15.719 28.4582 16.0045 28.5767C16.2899 28.6951 16.596 28.7559 16.9051 28.7557" fill="#D75337"/>
  <path d="M16.8195 31.6907C19.6584 31.6907 21.9649 29.3379 21.9649 26.4425C21.9649 24.9142 21.3441 23.5771 20.1707 22.4915C19.9541 22.2903 19.9049 22.1796 19.9049 21.8781L19.9246 12.8501C19.9246 10.7491 18.6726 9.35156 16.8195 9.35156C14.9564 9.35156 13.7043 10.7491 13.7043 12.8501L13.7144 21.8781C13.7144 22.1796 13.6652 22.2903 13.4578 22.4915C12.2752 23.5771 11.6641 24.9142 11.6641 26.4421C11.6641 29.3375 13.9604 31.6907 16.8195 31.6907ZM16.8195 30.2318C14.7692 30.2318 13.1033 28.5229 13.1033 26.4421C13.1033 25.1853 13.6849 24.0494 14.7297 23.3356C15.0354 23.1242 15.1536 22.9333 15.1536 22.5211V12.9105C15.1536 11.6439 15.8337 10.8293 16.8191 10.8293C17.7953 10.8293 18.4657 11.6439 18.4657 12.9105V22.5215C18.4657 22.9337 18.5838 23.1246 18.8896 23.3356C19.9343 24.0498 20.516 25.1857 20.516 26.4425C20.516 28.5233 18.8602 30.2318 16.8195 30.2318Z" fill="#D75337"/>
  <path d="M1.68945 16.5578V32.1501C1.68945 33.724 2.96537 34.9999 4.5393 34.9999H28.763C30.3369 34.9999 31.6128 33.724 31.6128 32.1501V16.5578C31.6128 15.7883 31.3016 15.0515 30.75 14.5149L18.6381 2.73441C17.532 1.65847 15.7703 1.65847 14.6641 2.73441L2.55229 14.5149C2.00066 15.0515 1.68945 15.7883 1.68945 16.5578Z" stroke="#222222" stroke-width="2.5"/>
</svg>