<svg xmlns="http://www.w3.org/2000/svg" width="42" height="39" viewBox="0 0 42 39" fill="none">
  <path d="M20.5144 0L6.46821 14.0462L7.70038 15.2783H5.23605L0 20.5144V38.9995H2.71571L6.984 34.7325L6.9827 34.7312L8.56133 33.1538L10.9566 30.7598L10.9553 30.7585L12.5991 29.1161L14.9944 26.7221L14.9931 26.7208L16.7671 24.9481L30.8185 38.9995H41.0287V20.5144L20.5144 0ZM3.3865 21.9159L8.56133 16.741L10.3353 18.515L3.3865 25.4639V21.9159ZM3.3865 33.5394V30.2519L12.7293 20.9103L14.3731 22.5528L3.3865 33.5394ZM32.2212 35.613L10.9553 14.347L12.4688 12.8335L35.2483 35.613H32.2212ZM37.6422 33.219L14.8628 10.4395L16.5066 8.79578L37.6422 29.9314V33.219ZM37.6422 25.1435L18.9006 6.40179L20.5144 4.78799L37.6422 21.9159V25.1435Z" fill="#D75438"/>
  <path d="M11.2521 38.9994H2.7168L6.98509 34.7324L11.2521 38.9994Z" fill="#D75438"/>
  <path d="M19.1955 38.9994H14.4075L11.021 35.6129L8.56055 33.1538L10.9558 30.7598L19.1955 38.9994Z" fill="#D75438"/>
  <path d="M27.2723 38.999H22.4843L19.0978 35.6125L12.5996 29.1157L14.9949 26.7217L27.2723 38.999Z" fill="#D75438"/>
</svg>