<svg xmlns="http://www.w3.org/2000/svg" width="40" height="29" viewBox="0 0 40 29" fill="none">
  <path d="M19.7561 2.36077L19.7561 2.3608L10.2482 8.6307L10.2459 8.63225C9.96631 8.81575 9.63909 8.91323 9.30473 8.91267M19.7561 2.36077L9.3063 7.59902M19.7561 2.36077C20.7255 1.72147 22.0191 2.41759 22.0191 3.57969V26.2217C22.0191 27.3847 20.7261 28.0803 19.7561 27.4406L19.7559 27.4405L10.2523 21.176M19.7561 2.36077L10.2523 21.176M9.30473 8.91267C9.30383 8.91267 9.30293 8.91267 9.30202 8.91266L9.3063 7.59902M9.30473 8.91267H9.3063V7.59902M9.30473 8.91267H4.71006C3.90252 8.91267 3.12805 9.23347 2.55703 9.80449C1.98601 10.3755 1.66522 11.15 1.66522 11.9575V17.8439C1.66522 18.6514 1.98601 19.4259 2.55703 19.9969C3.12805 20.5679 3.90252 20.8887 4.71006 20.8887H9.3063H9.31525V20.8888C9.64742 20.891 9.97172 20.99 10.2485 21.1735L10.2464 21.1721L9.52344 22.2689M9.3063 7.59902H4.71006C3.55412 7.59902 2.44552 8.05822 1.62814 8.87559C0.810761 9.69297 0.351562 10.8016 0.351562 11.9575V17.8439C0.351562 18.9998 0.810761 20.1084 1.62814 20.9258C2.44552 21.7432 3.55412 22.2024 4.71006 22.2024H9.3063C9.38363 22.2029 9.4591 22.226 9.52344 22.2689M9.52344 22.2689L10.2523 21.176M9.52344 22.2689L19.0329 28.5373L10.2523 21.176" stroke="#222222" stroke-width="2.62731"/>
  <path d="M28.4297 9.56152L38.4495 19.5814" stroke="#D75337" stroke-width="2.62731" stroke-linecap="round"/>
  <path d="M38.4492 9.56152L28.4294 19.5814" stroke="#D75337" stroke-width="2.62731" stroke-linecap="round"/>
</svg>